<svg xmlns="http://www.w3.org/2000/svg" height="138.36" width="150" viewBox="0 0 150 138.3568">
 <g>
  <path d="m92.848 0.99609c-0.722-0.00213-1.455 0.00481-2.196 0.01951-7.316 0.1452-12.478 0.8334-19.402 2.5899-14.477 3.6723-28.713 11.436-41.508 22.636-2.651 2.32-8.014 7.674-10.193 10.172-2.348 2.692-4.476 5.405-4.406 5.615 0.032 0.097 5.372 3.802 11.867 8.239 8.409 5.742 11.798 8.146 11.779 8.353-0.015 0.159-3.395 9.62-7.512 21.024l-7.484 20.735-4.039 0.05-4.039 0.04-7.2287 18.32c-3.9755 10.07-7.2285 18.37-7.2285 18.44 0 0.19 57.136 0.15 60.601-0.05 20.404-1.17 39.381-8.78 55.791-22.38 2.7-2.24 9.41-8.92 11.59-11.55 5.08-6.117 9.02-12.187 12.3-18.971 11.64-24.018 10.05-47.775-4.33-64.558-4.45-5.197-9.89-9.402-16.19-12.508-8.6-4.2456-17.34-6.185-28.172-6.2169zm3.984 42.315c0.451 0.1 2.032 3.365 2.51 5.265 0.518 2.062 0.64 6.34 0.252 8.856-1.447 9.371-6.744 19.059-14.86 27.179v0.002c-2.357 2.359-4.308 4.124-4.308 3.897 0-0.139 16.245-45.074 16.332-45.176 0.019-0.023 0.044-0.03 0.074-0.023z" fill="#1b4677" transform="translate(0 -.0016022)"/>
  <path d="m93.189 7.209c-1.051-0.0088-2.113 0.0064-3.183 0.0449-18.399 0.6628-35.616 7.4961-52.199 20.721-2.946 2.35-10.197 9.242-12.055 11.463l-0.963 1.15 9.981 6.767c5.489 3.723 10.403 7.054 10.921 7.405 0.809 0.548 0.926 0.743 0.83 1.383-0.141 0.947-2.459 7.511-11.037 31.25l-6.898 19.087-4.107 0.07-4.106 0.07-2.617 6.63c-1.44 3.64-3.561 9.02-4.713 11.96l-2.096 5.33 1.899 0.16h0.002c3.061 0.26 48.679 0 51.863-0.29 8.465-0.78 16.922-2.85 24.799-6.07 27.85-11.38 48.41-35.913 52.97-63.238 0.54-3.195 0.62-12.528 0.14-15.252-1.66-9.357-5.21-16.818-11.06-23.205-9.03-9.871-22.6-15.304-38.371-15.436zm0.772 26.012c0.173-0.011 0.486 0.053 0.805 0.174 1.741 0.657 3.67 2.038 5.794 4.148 1.88 1.878 2.42 2.606 3.4 4.588 2.01 4.055 2.73 8.2 2.39 13.64-0.35 5.424-1.79 10.362-4.8 16.491-3.219 6.533-7.184 11.891-12.946 17.492-5.41 5.258-10.933 9.177-17.141 12.156-1.403 0.68-2.656 1.23-2.783 1.23-0.128 0 0.199-1.2 0.726-2.67 1.248-3.472 14.66-40.527 20.069-55.445 2.316-6.387 4.28-11.682 4.365-11.767 0.021-0.021 0.063-0.034 0.121-0.037z" transform="translate(0 -.0016022)" fill="#fff"/>
  <path fill="#1b4677" d="m19.153 125.09c0.000923-0.0767 1.1286-2.9881 2.5059-6.4695l2.5041-6.33 4.1361-0.0451c4.0987-0.0447 4.1375-0.0485 4.2981-0.42201 0.08916-0.20729 5.7789-15.928 12.644-34.936l12.482-34.558 3.1228-1.5911c5.1325-2.615 9.8883-4.3148 14.658-5.2385 3.1014-0.60064 5.0199-0.77421 8.5575-0.77421h3.141l-0.11856 0.37981c-0.0652 0.2089-6.2992 17.466-13.853 38.348-7.5539 20.882-13.735 37.993-13.735 38.022 0 0.32723 4.1126-0.64478 7.5962-1.7953 6.3022-2.0815 12.353-5.2522 18.062-9.4642 5.912-4.362 12.174-10.783 16.422-16.837 7.5906-10.819 11.509-23.466 10.408-33.596-1.445-13.296-10.24-22.169-23.618-23.824-2.0811-0.25836-6.6996-0.21738-9.1014 0.08018-12.125 1.5003-25.015 8.1339-35.13 18.08l-1.7724 1.7425-4.5122-3.0766c-2.4817-1.6921-4.5137-3.1618-4.5154-3.266-0.0037-0.2135 4.7668-4.6826 6.8332-6.4015 8.5134-7.0818 18.841-12.909 28.865-16.289 12.766-4.3034 26-5.2011 37.081-2.5152 17.197 4.1682 28.63 16.299 30.953 32.844 2.7392 19.504-8.7362 43.537-28.366 59.409-11.182 9.041-24.662 15.186-38.291 17.454-6.4038 1.0659-6.2445 1.0598-29.777 1.139-11.814 0.0398-21.48 0.01-21.478-0.0672z"/>
 </g>
</svg>